<svg width="210" height="102" viewBox="0 0 210 102" fill="none" xmlns="http://www.w3.org/2000/svg">
<path d="M8.37555 102C3.74986 102 -0.0366204 98.2435 0.352717 93.6343C1.24206 83.1055 3.80648 72.7578 7.96939 62.9663C13.2308 50.5911 20.9425 39.3467 30.6643 29.8751C40.386 20.4035 51.9275 12.8903 64.6296 7.76428C77.3317 2.6383 90.9457 -1.75652e-06 104.694 0C118.443 1.75652e-06 132.057 2.63831 144.759 7.76429C157.461 12.8903 169.003 20.4035 178.724 29.8751C188.446 39.3467 196.158 50.5911 201.419 62.9663C205.582 72.7578 208.147 83.1055 209.036 93.6343C209.425 98.2436 205.639 102 201.013 102V102C196.387 102 192.681 98.2409 192.218 93.6385C191.374 85.2548 189.264 77.0226 185.943 69.2117C181.524 58.8165 175.046 49.3712 166.88 41.4151C158.713 33.459 149.019 27.1478 138.349 22.842C127.679 18.5362 116.243 16.32 104.694 16.32C93.1455 16.32 81.7097 18.5362 71.0399 22.842C60.3702 27.1478 50.6754 33.459 42.5091 41.4151C34.3428 49.3712 27.8649 58.8165 23.4454 69.2117C20.1246 77.0225 18.0147 85.2547 17.1709 93.6384C16.7076 98.2409 13.0012 102 8.37555 102V102Z" fill="#FFF7E8"/>
<path d="M8.37555 102C3.74986 102 -0.036646 98.2433 0.352651 93.6341C1.92113 75.0633 8.68873 57.2069 19.9949 42.0459C32.9904 24.6194 51.3149 11.6485 72.342 4.99223C93.3692 -1.66408 116.02 -1.66408 137.047 4.99225C155.325 10.7785 171.562 21.3364 184.031 35.4448C187.119 38.9396 186.257 44.2665 182.45 46.9612V46.9612C178.774 49.563 173.723 48.727 170.704 45.3856C160.316 33.8891 146.917 25.2766 131.87 20.5135C114.208 14.9222 95.1812 14.9222 77.5184 20.5135C59.8556 26.1048 44.463 37.0003 33.5468 51.6386C24.3207 64.0103 18.6925 78.5187 17.1708 93.6383C16.7076 98.2407 13.0012 102 8.37555 102V102Z" fill="#FFCD71"/>
</svg>
