<svg width="150" height="30" viewBox="0 0 150 30" fill="none" xmlns="http://www.w3.org/2000/svg">
<rect y="0.611633" width="150" height="29" rx="4" fill="url(#paint0_linear_34_723)"/>
<path d="M18.1023 15.5207C18.1023 16.6178 17.8968 17.5574 17.4858 18.3396C17.0781 19.1185 16.5213 19.7151 15.8153 20.1294C15.1127 20.5437 14.3156 20.7508 13.424 20.7508C12.5324 20.7508 11.7337 20.5437 11.0277 20.1294C10.325 19.7118 9.76823 19.1135 9.35724 18.3346C8.94957 17.5524 8.74574 16.6145 8.74574 15.5207C8.74574 14.4237 8.94957 13.4857 9.35724 12.7068C9.76823 11.9246 10.325 11.3264 11.0277 10.9121C11.7337 10.4978 12.5324 10.2906 13.424 10.2906C14.3156 10.2906 15.1127 10.4978 15.8153 10.9121C16.5213 11.3264 17.0781 11.9246 17.4858 12.7068C17.8968 13.4857 18.1023 14.4237 18.1023 15.5207ZM16.2479 15.5207C16.2479 14.7485 16.1269 14.0972 15.8849 13.5669C15.6463 13.0333 15.3149 12.6306 14.8906 12.3588C14.4664 12.0837 13.9775 11.9462 13.424 11.9462C12.8705 11.9462 12.3816 12.0837 11.9574 12.3588C11.5331 12.6306 11.2 13.0333 10.9581 13.5669C10.7195 14.0972 10.6001 14.7485 10.6001 15.5207C10.6001 16.293 10.7195 16.9459 10.9581 17.4795C11.2 18.0098 11.5331 18.4125 11.9574 18.6876C12.3816 18.9594 12.8705 19.0953 13.424 19.0953C13.9775 19.0953 14.4664 18.9594 14.8906 18.6876C15.3149 18.4125 15.6463 18.0098 15.8849 17.4795C16.1269 16.9459 16.2479 16.293 16.2479 15.5207ZM19.8461 20.6116V10.4298H23.6642C24.4464 10.4298 25.1027 10.5657 25.633 10.8375C26.1666 11.1093 26.5693 11.4904 26.8411 11.981C27.1162 12.4682 27.2537 13.0366 27.2537 13.6862C27.2537 14.3391 27.1145 14.9059 26.8361 15.3865C26.561 15.8638 26.155 16.2333 25.6181 16.4952C25.0811 16.7537 24.4216 16.8829 23.6394 16.8829H20.9199V15.3517H23.3908C23.8482 15.3517 24.2227 15.2887 24.5144 15.1628C24.806 15.0335 25.0215 14.8462 25.1607 14.601C25.3032 14.3524 25.3745 14.0475 25.3745 13.6862C25.3745 13.3249 25.3032 13.0167 25.1607 12.7615C25.0182 12.503 24.8011 12.3074 24.5094 12.1748C24.2177 12.039 23.8416 11.971 23.3809 11.971H21.6905V20.6116H19.8461ZM25.106 15.998L27.6266 20.6116H25.5684L23.0925 15.998H25.106Z" fill="#131313"/>
<path d="M125.803 19.0994C125.358 19.0994 124.958 19.0142 124.603 18.8438C124.25 18.6709 123.969 18.4342 123.758 18.1335C123.547 17.8329 123.435 17.4896 123.42 17.1037H124.486C124.512 17.4162 124.65 17.6731 124.901 17.8743C125.152 18.0755 125.453 18.1761 125.803 18.1761C126.083 18.1761 126.33 18.1122 126.545 17.9844C126.763 17.8542 126.934 17.6754 127.057 17.4482C127.182 17.2209 127.245 16.9616 127.245 16.6705C127.245 16.3745 127.181 16.1106 127.053 15.8786C126.925 15.6465 126.749 15.4643 126.524 15.3317C126.302 15.1991 126.046 15.1316 125.757 15.1293C125.537 15.1293 125.316 15.1671 125.093 15.2429C124.871 15.3187 124.691 15.4181 124.553 15.5412L123.548 15.392L123.957 11.7273H127.955V12.6683H124.869L124.638 14.7031H124.681C124.823 14.5658 125.011 14.451 125.246 14.3587C125.482 14.2663 125.736 14.2202 126.006 14.2202C126.448 14.2202 126.843 14.3255 127.188 14.5362C127.536 14.7469 127.81 15.0346 128.009 15.3991C128.21 15.7614 128.309 16.178 128.307 16.6491C128.309 17.1203 128.203 17.5405 127.987 17.9098C127.774 18.2791 127.478 18.5703 127.099 18.7834C126.723 18.9941 126.291 19.0994 125.803 19.0994ZM132.136 19.1207C131.575 19.1184 131.095 18.9704 130.698 18.6768C130.3 18.3833 129.996 17.956 129.785 17.3949C129.574 16.8338 129.469 16.1579 129.469 15.3672C129.469 14.5788 129.574 13.9053 129.785 13.3466C129.998 12.7879 130.303 12.3617 130.701 12.0682C131.101 11.7746 131.579 11.6278 132.136 11.6278C132.692 11.6278 133.169 11.7758 133.567 12.0717C133.965 12.3653 134.269 12.7914 134.48 13.3501C134.693 13.9065 134.799 14.5788 134.799 15.3672C134.799 16.1603 134.694 16.8374 134.483 17.3984C134.272 17.9571 133.968 18.3845 133.57 18.6804C133.173 18.974 132.695 19.1207 132.136 19.1207ZM132.136 18.1726C132.628 18.1726 133.013 17.9323 133.29 17.4517C133.569 16.9711 133.709 16.2763 133.709 15.3672C133.709 14.7635 133.645 14.2533 133.517 13.8366C133.392 13.4176 133.211 13.1004 132.974 12.8849C132.74 12.6671 132.46 12.5582 132.136 12.5582C131.646 12.5582 131.261 12.7997 130.982 13.2827C130.702 13.7656 130.561 14.4605 130.559 15.3672C130.559 15.9732 130.622 16.4858 130.747 16.9048C130.875 17.3215 131.056 17.6375 131.291 17.853C131.525 18.0661 131.807 18.1726 132.136 18.1726ZM136.158 19V11.7273H137.256V15.2003H137.344L140.395 11.7273H141.776L138.843 15.0014L141.787 19H140.466L138.115 15.7507L137.256 16.7379V19H136.158Z" fill="#131313"/>
<defs>
<linearGradient id="paint0_linear_34_723" x1="-3.86029" y1="15" x2="168.75" y2="15" gradientUnits="userSpaceOnUse">
<stop stop-color="#FFCD71"/>
<stop offset="1" stop-color="#FFCD71" stop-opacity="0"/>
</linearGradient>
</defs>
</svg>
