<svg width="14" height="13" viewBox="0 0 14 13" fill="none" xmlns="http://www.w3.org/2000/svg">
<path d="M8.33333 3.66667V2.33333C8.33333 1.97971 8.19286 1.64057 7.94281 1.39052C7.69276 1.14048 7.35362 1 7 1H2.33333C1.97971 1 1.64057 1.14048 1.39052 1.39052C1.14048 1.64057 1 1.97971 1 2.33333V10.3333C1 10.687 1.14048 11.0261 1.39052 11.2761C1.64057 11.5262 1.97971 11.6667 2.33333 11.6667H7C7.35362 11.6667 7.69276 11.5262 7.94281 11.2761C8.19286 11.0261 8.33333 10.687 8.33333 10.3333V9M5 6.33333H13M13 6.33333L11 4.33333M13 6.33333L11 8.33333" stroke="#B01212" stroke-width="1.25" stroke-linecap="round" stroke-linejoin="round"/>
</svg>
